<svg width="400" height="400" viewBox="0 0 400 400" fill="none" xmlns="http://www.w3.org/2000/svg">
<path d="M112 17.8184C112 27.6592 104.022 35.6367 94.1816 35.6367H73.8184C52.7312 35.6367 35.6367 52.7312 35.6367 73.8184V94.1816C35.6367 104.022 27.6592 112 17.8184 112C7.97755 112 0 104.022 0 94.1816V50C0 22.3858 22.3858 0 50 0H94.1816C104.022 0 112 7.97755 112 17.8184Z" fill="#224D86"/>
<path d="M288 17.8184C288 27.6592 295.978 35.6367 305.818 35.6367H326.182C347.269 35.6367 364.363 52.7312 364.363 73.8184V94.1816C364.363 104.022 372.341 112 382.182 112C392.022 112 400 104.022 400 94.1816V50C400 22.3858 377.614 0 350 0H305.818C295.978 0 288 7.97755 288 17.8184Z" fill="#224D86"/>
<path d="M17.8184 288C27.6592 288 35.6367 295.978 35.6367 305.818V326.182C35.6367 347.269 52.7312 364.363 73.8184 364.363H94.1816C104.022 364.363 112 372.341 112 382.182C112 392.022 104.022 400 94.1816 400H50C22.3858 400 0 377.614 0 350V305.818C0 295.978 7.97755 288 17.8184 288Z" fill="#224D86"/>
<path d="M400 350C400 377.614 377.614 400 350 400H305.818C295.978 400 288 392.022 288 382.182C288 372.341 295.978 364.363 305.818 364.363H326.182C347.269 364.363 364.363 347.269 364.363 326.182V305.818C364.363 295.978 372.341 288 382.182 288C392.022 288 400 295.978 400 305.818V350Z" fill="#224D86"/>
<g filter="url(#filter0_d_63_617)">
<circle cx="200" cy="129" r="41" fill="url(#paint0_linear_63_617)"/>
</g>
<g filter="url(#filter1_d_63_617)">
<path d="M206.227 184C227.13 184 245.827 197.003 253.101 216.6L264.98 248.6C277.105 281.262 252.945 316 218.106 316H181.894C147.055 316 122.895 281.262 135.02 248.6L146.899 216.6C154.173 197.003 172.87 184 193.773 184H206.227Z" fill="url(#paint1_linear_63_617)"/>
</g>
<defs>
<filter id="filter0_d_63_617" x="151" y="88" width="98" height="98" filterUnits="userSpaceOnUse" color-interpolation-filters="sRGB">
<feFlood flood-opacity="0" result="BackgroundImageFix"/>
<feColorMatrix in="SourceAlpha" type="matrix" values="0 0 0 0 0 0 0 0 0 0 0 0 0 0 0 0 0 0 127 0" result="hardAlpha"/>
<feOffset dy="8"/>
<feGaussianBlur stdDeviation="4"/>
<feComposite in2="hardAlpha" operator="out"/>
<feColorMatrix type="matrix" values="0 0 0 0 0 0 0 0 0 0 0 0 0 0 0 0 0 0 0.25 0"/>
<feBlend mode="normal" in2="BackgroundImageFix" result="effect1_dropShadow_63_617"/>
<feBlend mode="normal" in="SourceGraphic" in2="effect1_dropShadow_63_617" result="shape"/>
</filter>
<filter id="filter1_d_63_617" x="123.85" y="184" width="152.3" height="148" filterUnits="userSpaceOnUse" color-interpolation-filters="sRGB">
<feFlood flood-opacity="0" result="BackgroundImageFix"/>
<feColorMatrix in="SourceAlpha" type="matrix" values="0 0 0 0 0 0 0 0 0 0 0 0 0 0 0 0 0 0 127 0" result="hardAlpha"/>
<feOffset dy="8"/>
<feGaussianBlur stdDeviation="4"/>
<feComposite in2="hardAlpha" operator="out"/>
<feColorMatrix type="matrix" values="0 0 0 0 0 0 0 0 0 0 0 0 0 0 0 0 0 0 0.25 0"/>
<feBlend mode="normal" in2="BackgroundImageFix" result="effect1_dropShadow_63_617"/>
<feBlend mode="normal" in="SourceGraphic" in2="effect1_dropShadow_63_617" result="shape"/>
</filter>
<linearGradient id="paint0_linear_63_617" x1="200" y1="88" x2="200" y2="170" gradientUnits="userSpaceOnUse">
<stop stop-color="#35B9EB"/>
<stop offset="1" stop-color="#35A7DF"/>
</linearGradient>
<linearGradient id="paint1_linear_63_617" x1="200" y1="184" x2="200" y2="316" gradientUnits="userSpaceOnUse">
<stop stop-color="#32A1DD"/>
<stop offset="1" stop-color="#2F7EC3"/>
</linearGradient>
</defs>
</svg>
